<?xml version="1.0" encoding="utf-8"?>
<!-- Generator: Adobe Illustrator 25.2.1, SVG Export Plug-In . SVG Version: 6.00 Build 0)  -->
<svg version="1.1" id="Capa_1" xmlns="http://www.w3.org/2000/svg" xmlns:xlink="http://www.w3.org/1999/xlink" x="0px" y="0px"
	 viewBox="0 0 7061.11 2889.62" style="enable-background:new 0 0 7061.11 2889.62;" xml:space="preserve">
<style type="text/css">
	.st0{fill:#606060;}
	.st1{fill:url(#SVGID_1_);}
	.st2{fill:#969696;}
	.st3{fill:#3F3F3F;}
	.st4{fill:#E0E0E0;}
	.st5{fill:#7C7C7C;}
	.st6{fill:#C9C9C9;}
	.st7{fill:url(#SVGID_2_);}
	.st8{fill:#4F4F4F;}
	.st9{fill:#2D2D2D;}
	.st10{fill:#B6B7B6;}
	.st11{fill:url(#SVGID_3_);}
	.st12{fill:url(#SVGID_4_);}
	.st13{fill:url(#SVGID_5_);}
	.st14{fill:#3D3D3D;}
	.st15{fill:url(#SVGID_6_);}
	.st16{fill:#005E00;}
	.st17{fill:#008000;}
	.st18{fill:url(#SVGID_7_);}
	.st19{fill:#2E3A2E;}
	.st20{fill:#043504;}
	.st21{fill:url(#SVGID_8_);}
	.st22{fill:url(#SVGID_9_);}
	.st23{fill:url(#SVGID_10_);}
	.st24{fill:url(#SVGID_11_);}
	.st25{fill:url(#SVGID_12_);}
</style>
<g id="Capa_4">
	<rect x="-55.03" y="-63.29" class="st0" width="7171.18" height="3016.2"/>
	<g>
		
			<radialGradient id="SVGID_1_" cx="3497.364" cy="-2217.978" r="3445.0332" gradientTransform="matrix(1 -4.792277e-03 4.894938e-04 0.1021 -1.1871 2750.2659)" gradientUnits="userSpaceOnUse">
			<stop  offset="0" style="stop-color:#000000;stop-opacity:0.3"/>
			<stop  offset="1" style="stop-color:#000000;stop-opacity:0"/>
		</radialGradient>
		<rect x="22.54" y="2494.7" class="st1" width="7038.57" height="371.57"/>
	</g>
</g>
<g id="Capa_6">
	<g>
		<g>
			<polygon class="st2" points="5736.24,2768.55 5692.74,2866.27 5580.74,2768.55 5580.74,1300.29 5846.24,1300.29 5846.24,2069.76 
							"/>
		</g>
		<g>
			<rect x="5692.74" y="2113.76" class="st3" width="1027" height="752.51"/>
		</g>
		<g>
			<rect x="5764.55" y="2113.76" class="st4" width="883.38" height="752.51"/>
		</g>
		<g>
			<polygon class="st4" points="5580.74,270.29 6729.74,270.29 6679.74,1302.29 5580.74,1302.29 			"/>
		</g>
		<g>
			<path d="M6590.08,1266.71H5670.4c-28.59,0-51.77-23.18-51.77-51.77v-857.3c0-28.59,23.18-51.77,51.77-51.77h969.68
				c28.59,0,51.77,23.18,51.77,51.77l-50,857.3C6641.84,1243.53,6618.67,1266.71,6590.08,1266.71z"/>
		</g>
		<rect x="5886.45" y="22.79" class="st4" width="1115.29" height="193.5"/>
		<rect x="5846.74" y="1926.26" class="st5" width="1119.5" height="143.5"/>
		<rect x="5908.46" y="38.83" class="st5" width="1073.75" height="161.44"/>
		<polygon class="st6" points="6729.24,270.29 5581.24,270.29 5893.74,216.29 7001.74,216.29 		"/>
		
			<linearGradient id="SVGID_2_" gradientUnits="userSpaceOnUse" x1="6273.7402" y1="897.4841" x2="6273.7402" y2="1542.2029" gradientTransform="matrix(1 0 0 1 0 454)">
			<stop  offset="2.024560e-07" style="stop-color:#FFFFFF"/>
			<stop  offset="1" style="stop-color:#949494"/>
		</linearGradient>
		<polygon class="st7" points="6679.24,1302.29 5581.24,1302.29 5846.24,1926.29 6966.24,1926.29 		"/>
		<path class="st8" d="M7001.74,216.29c-55.67,36.44-34.3,1815.88-35.5,1710l-286.5-624l49.5-1032L7001.74,216.29z"/>
		<path class="st8" d="M5893.74,216.29c-55.67,36.44-46.3,1815.88-47.5,1710l-264.5-624l-0.5-1032L5893.74,216.29z"/>
		<polygon class="st9" points="6719.24,2113.76 5693.24,2113.76 5846.24,2069.76 6966.24,2069.76 		"/>
		<g>
			<g>
				<path class="st10" d="M6496.2,2202.64c33.87,0,61.32,27.45,61.32,61.32v461.47c0,33.86-27.45,61.32-61.32,61.32h-579.93
					c-33.86,0-61.32-27.45-61.32-61.32v-461.47c0-33.86,27.45-61.32,61.32-61.32H6496.2 M6496.2,2192.64h-579.93
					c-39.32,0-71.32,31.99-71.32,71.32v461.47c0,39.32,31.99,71.32,71.32,71.32h579.93c39.33,0,71.32-31.99,71.32-71.32v-461.47
					C6567.52,2224.64,6535.53,2192.64,6496.2,2192.64L6496.2,2192.64z"/>
			</g>
		</g>
		<polygon class="st2" points="5886.45,22.79 5886.45,216.29 5581.24,270.29 5581.24,109.24 		"/>
	</g>
	<g>
		<g>
			<polygon class="st2" points="4394.05,2768.55 4350.55,2866.27 4308.55,2768.55 4308.55,1300.29 4394.05,1300.29 			"/>
		</g>
		<g>
			<rect x="4350.55" y="2113.76" class="st3" width="1027" height="752.51"/>
		</g>
		<g>
			<rect x="4422.36" y="2113.76" class="st4" width="883.38" height="752.51"/>
		</g>
		<g>
			<polygon class="st4" points="4308.55,270.29 5337.55,270.29 5307.55,1302.29 4308.55,1302.29 			"/>
		</g>
		<g>
			<path d="M5214.28,1266.71H4384.6c-28.59,0-51.77-23.18-51.77-51.77v-857.3c0-28.59,23.18-51.77,51.77-51.77h859.68
				c28.59,0,51.77,23.18,51.77,51.77l-30,857.3C5266.05,1243.53,5242.87,1266.71,5214.28,1266.71z"/>
		</g>
		<rect x="4434.26" y="22.79" class="st4" width="1115.29" height="193.5"/>
		<rect x="4394.55" y="1926.26" class="st5" width="1119.5" height="143.5"/>
		<rect x="4456.27" y="38.83" class="st5" width="1073.75" height="161.44"/>
		<polygon class="st6" points="5337.05,270.29 4309.05,270.29 4441.55,216.29 5549.55,216.29 		"/>
		
			<linearGradient id="SVGID_3_" gradientUnits="userSpaceOnUse" x1="4911.5498" y1="897.4841" x2="4911.5498" y2="1542.2029" gradientTransform="matrix(1 0 0 1 0 454)">
			<stop  offset="2.024560e-07" style="stop-color:#FFFFFF"/>
			<stop  offset="1" style="stop-color:#949494"/>
		</linearGradient>
		<polygon class="st11" points="5307.05,1302.29 4309.05,1302.29 4394.05,1926.29 5514.05,1926.29 		"/>
		<path class="st8" d="M5549.55,216.29c-55.67,36.44-34.3,1815.88-35.5,1710l-206.5-624l29.5-1032L5549.55,216.29z"/>
		<path class="st8" d="M4441.55,216.29c-55.67,36.44-46.3,1815.88-47.5,1710l-84.5-624l-0.5-1032L4441.55,216.29z"/>
		<polygon class="st9" points="5377.05,2113.76 4351.05,2113.76 4394.05,2069.76 5514.05,2069.76 		"/>
		<g>
			<g>
				<path class="st10" d="M5154.01,2202.64c33.86,0,61.32,27.45,61.32,61.32v461.47c0,33.86-27.45,61.32-61.32,61.32h-579.93
					c-33.87,0-61.32-27.45-61.32-61.32v-461.47c0-33.86,27.45-61.32,61.32-61.32H5154.01 M5154.01,2192.64h-579.93
					c-39.33,0-71.32,31.99-71.32,71.32v461.47c0,39.32,31.99,71.32,71.32,71.32h579.93c39.32,0,71.32-31.99,71.32-71.32v-461.47
					C5225.33,2224.64,5193.34,2192.64,5154.01,2192.64L5154.01,2192.64z"/>
			</g>
		</g>
		<polygon class="st2" points="4434.26,22.79 4434.26,216.29 4309.05,270.29 4309.05,109.24 		"/>
	</g>
	<g>
		<g>
			<g>
				<polygon class="st2" points="1215.23,2069.76 1215.23,1300.29 1480.73,1300.29 1480.73,2768.55 1368.73,2866.27 
					1325.23,2768.55 				"/>
			</g>
			<g>
				<rect x="341.73" y="2113.76" class="st3" width="1027" height="752.51"/>
			</g>
			<g>
				<rect x="413.54" y="2113.76" class="st4" width="883.38" height="752.51"/>
			</g>
			<g>
				<polygon class="st4" points="1480.73,1302.29 381.73,1302.29 331.73,270.29 1480.73,270.29 				"/>
			</g>
			<g>
				<path d="M419.62,1214.94l-50-857.3c0-28.59,23.18-51.77,51.77-51.77h969.68c28.59,0,51.77,23.18,51.77,51.77v857.3
					c0,28.59-23.18,51.77-51.77,51.77H471.39C442.8,1266.71,419.63,1243.53,419.62,1214.94z"/>
			</g>
			<rect x="59.73" y="22.79" class="st4" width="1115.29" height="193.5"/>
			<rect x="95.23" y="1926.26" class="st5" width="1119.5" height="143.5"/>
			<rect x="79.26" y="38.83" class="st5" width="1073.75" height="161.44"/>
			<polygon class="st6" points="59.73,216.29 1167.73,216.29 1480.23,270.29 332.23,270.29 			"/>
			
				<linearGradient id="SVGID_4_" gradientUnits="userSpaceOnUse" x1="12192.7412" y1="897.4841" x2="12192.7412" y2="1542.2029" gradientTransform="matrix(-1 0 0 1 12980.4707 454)">
				<stop  offset="2.024560e-07" style="stop-color:#FFFFFF"/>
				<stop  offset="1" style="stop-color:#949494"/>
			</linearGradient>
			<polygon class="st12" points="95.23,1926.29 1215.23,1926.29 1480.23,1302.29 382.23,1302.29 			"/>
			<path class="st8" d="M332.23,270.29l49.5,1032l-286.5,624c-1.2,105.88,20.17-1673.56-35.5-1710L332.23,270.29z"/>
			<path class="st8" d="M1480.23,270.29l-0.5,1032l-264.5,624c-1.2,105.88,8.17-1673.56-47.5-1710L1480.23,270.29z"/>
			<polygon class="st9" points="95.23,2069.76 1215.23,2069.76 1368.23,2113.76 342.23,2113.76 			"/>
			<g>
				<g>
					<path class="st10" d="M565.27,2202.64h579.93c33.87,0,61.32,27.46,61.32,61.32v461.47c0,33.87-27.46,61.32-61.32,61.32H565.27
						c-33.87,0-61.32-27.46-61.32-61.32v-461.47C503.95,2230.09,531.4,2202.64,565.27,2202.64 M565.27,2192.64
						c-39.33,0-71.32,32-71.32,71.32v461.47c0,39.33,31.99,71.32,71.32,71.32h579.93c39.33,0,71.32-32,71.32-71.32v-461.47
						c0-39.33-32-71.32-71.32-71.32H565.27L565.27,2192.64z"/>
				</g>
			</g>
			<polygon class="st2" points="1480.23,109.24 1480.23,270.29 1175.02,216.29 1175.02,22.79 			"/>
		</g>
		<g>
			<g>
				<polygon class="st2" points="2667.42,1300.29 2752.92,1300.29 2752.92,2768.55 2710.92,2866.27 2667.42,2768.55 				"/>
			</g>
			<g>
				<rect x="1683.92" y="2113.76" class="st3" width="1027" height="752.51"/>
			</g>
			<g>
				<rect x="1755.73" y="2113.76" class="st4" width="883.38" height="752.51"/>
			</g>
			<g>
				<polygon class="st4" points="2752.92,1302.29 1753.92,1302.29 1723.92,270.29 2752.92,270.29 				"/>
			</g>
			<g>
				<path d="M1795.42,1214.94l-30-857.3c0-28.59,23.18-51.77,51.77-51.77h859.68c28.59,0,51.77,23.18,51.77,51.77v857.3
					c0,28.59-23.18,51.77-51.77,51.77h-829.68C1818.6,1266.71,1795.42,1243.53,1795.42,1214.94z"/>
			</g>
			<rect x="1511.92" y="22.79" class="st4" width="1115.29" height="193.5"/>
			<rect x="1547.42" y="1926.26" class="st5" width="1119.5" height="143.5"/>
			<rect x="1531.45" y="38.83" class="st5" width="1073.75" height="161.44"/>
			<polygon class="st6" points="1511.92,216.29 2619.92,216.29 2752.42,270.29 1724.42,270.29 			"/>
			
				<linearGradient id="SVGID_5_" gradientUnits="userSpaceOnUse" x1="10830.5508" y1="897.4841" x2="10830.5508" y2="1542.2029" gradientTransform="matrix(-1 0 0 1 12980.4707 454)">
				<stop  offset="2.024560e-07" style="stop-color:#FFFFFF"/>
				<stop  offset="1" style="stop-color:#949494"/>
			</linearGradient>
			<polygon class="st13" points="1547.42,1926.29 2667.42,1926.29 2752.42,1302.29 1754.42,1302.29 			"/>
			<path class="st8" d="M1724.42,270.29l29.5,1032l-206.5,624c-1.2,105.88,20.17-1673.56-35.5-1710L1724.42,270.29z"/>
			<path class="st8" d="M2752.42,270.29l-0.5,1032l-84.5,624c-1.2,105.88,8.17-1673.56-47.5-1710L2752.42,270.29z"/>
			<polygon class="st9" points="1547.42,2069.76 2667.42,2069.76 2710.42,2113.76 1684.42,2113.76 			"/>
			<g>
				<g>
					<path class="st10" d="M1907.46,2202.64h579.93c33.87,0,61.32,27.46,61.32,61.32v461.47c0,33.87-27.45,61.32-61.32,61.32
						h-579.93c-33.87,0-61.32-27.46-61.32-61.32v-461.47C1846.14,2230.09,1873.6,2202.64,1907.46,2202.64 M1907.46,2192.64
						c-39.33,0-71.32,32-71.32,71.32v461.47c0,39.33,32,71.32,71.32,71.32h579.93c39.33,0,71.32-32,71.32-71.32v-461.47
						c0-39.33-31.99-71.32-71.32-71.32H1907.46L1907.46,2192.64z"/>
				</g>
			</g>
			<polygon class="st2" points="2752.42,109.24 2752.42,270.29 2627.21,216.29 2627.21,22.79 			"/>
		</g>
	</g>
</g>
<g id="Capa_8">
	<g>
		<path class="st14" d="M7001.74,22.79v193.5c-52.42,34.31-36.53,1613.85-35.5,1709.97l0,0v0.03c0.03,3.06,0.05,4.54,0.05,4.54
			s-0.02-1.52-0.05-4.47v143.4l-247,44h0.5v752.51h-71.81h-883.38h-71.81l-112-97.71l0.5-2659.31l305.21-86.45h1115.29
			 M7001.74,1.79H5886.45c-1.94,0-3.86,0.27-5.72,0.8l-305.21,86.45c-9.04,2.56-15.28,10.81-15.28,20.2l-0.5,2659.31
			c0,6.07,2.62,11.84,7.19,15.83l112,97.71c3.82,3.34,8.73,5.18,13.81,5.18h71.81h883.38h71.81c11.6,0,21-9.4,21-21v-735.01
			l229.18-40.83c10.02-1.79,17.32-10.5,17.32-20.67V1931.8c0.05-0.95,0.04-1.74,0.04-2.32l-0.04-3.36c0-0.03,0-0.06,0-0.08
			c-0.19-17.74-4.65-439.2-2.43-854.66c1.24-232.12,4.32-420.42,9.15-559.67c2.83-81.85,6.31-147.43,10.33-194.93
			c5.42-63.99,10.72-81.52,12.53-85.86c3.76-3.88,5.92-9.1,5.92-14.62V22.79C7022.74,11.2,7013.34,1.79,7001.74,1.79L7001.74,1.79z"
			/>
	</g>
	<g>
		<path class="st14" d="M5549.55,22.79v193.5c-52.42,34.31-36.54,1613.85-35.5,1709.97l0,0v0.03c0.03,3.06,0.05,4.54,0.05,4.54
			s-0.02-1.52-0.05-4.47v143.4l-137,44h0.5v752.51h-71.81h-883.38h-71.81l-42-97.71l0.5-2659.31l125.21-86.45h1115.29 M5549.55,1.79
			H4434.26c-4.26,0-8.42,1.3-11.93,3.72l-125.21,86.45c-5.68,3.92-9.07,10.38-9.07,17.28l-0.5,2659.31c0,2.85,0.58,5.68,1.71,8.3
			l42,97.71c3.31,7.71,10.9,12.71,19.29,12.71h71.81h883.38h71.81c11.6,0,21-9.4,21-21v-737.35l121.92-39.16
			c8.69-2.79,14.58-10.87,14.58-19.99V1931.8c0.05-0.94,0.04-1.73,0.04-2.31l-0.04-3.42c0-0.06,0-0.13,0-0.19
			c-0.49-45.35-4.61-446.85-2.42-854.49c1.24-232.12,4.32-420.42,9.14-559.67c2.83-81.85,6.31-147.43,10.33-194.93
			c5.42-63.99,10.72-81.52,12.53-85.86c3.76-3.88,5.92-9.1,5.92-14.62V22.79C5570.55,11.2,5561.15,1.79,5549.55,1.79L5549.55,1.79z"
			/>
	</g>
	<g>
		<path class="st14" d="M1174.66,22.79l305.21,86.45l0.5,2659.31l-112,97.71h-71.81H413.18h-71.81v-752.51h0.5l-247-44v-143.4
			c-0.03,2.95-0.05,4.47-0.05,4.47s0.02-1.48,0.05-4.54v-0.03l0,0c1.03-96.11,16.92-1675.66-35.5-1709.97V22.79H1174.66
			 M1174.66,1.79H59.38c-11.6,0-21,9.4-21,21v193.5c0,5.52,2.17,10.74,5.92,14.62c1.81,4.34,7.11,21.87,12.53,85.86
			c4.02,47.5,7.5,113.09,10.33,194.93c4.82,139.25,7.9,327.55,9.14,559.67c2.22,414.47-2.22,835.27-2.42,854.56
			c0,0.04,0,0.09,0,0.13l-0.04,3.42c-0.01,0.58-0.02,1.37,0.04,2.31v137.97c0,10.18,7.3,18.89,17.32,20.67l229.18,40.83v735.01
			c0,11.6,9.4,21,21,21h71.81h883.38h71.81c5.08,0,9.98-1.84,13.81-5.18l112-97.71c4.57-3.99,7.2-9.76,7.19-15.83l-0.5-2659.31
			c0-9.39-6.24-17.64-15.28-20.2L1180.39,2.59C1178.52,2.06,1176.6,1.79,1174.66,1.79L1174.66,1.79z"/>
	</g>
	<g>
		<path class="st14" d="M2626.85,22.79l125.21,86.45l0.5,2659.31l-42,97.71h-71.81h-883.38h-71.81v-752.51h0.5l-137-44v-143.4
			c-0.03,2.95-0.05,4.47-0.05,4.47s0.02-1.48,0.05-4.54v-0.03l0,0c1.03-96.11,16.92-1675.66-35.5-1709.97V22.79H2626.85
			 M2626.85,1.79H1511.57c-11.6,0-21,9.4-21,21v193.5c0,5.52,2.17,10.74,5.92,14.62c1.81,4.34,7.11,21.87,12.53,85.86
			c4.02,47.5,7.5,113.09,10.33,194.93c4.82,139.25,7.9,327.55,9.14,559.67c2.22,414.46-2.22,835.27-2.42,854.56
			c0,0.04,0,0.09,0,0.13l-0.04,3.42c-0.01,0.58-0.02,1.37,0.04,2.31v137.97c0,9.12,5.89,17.2,14.58,19.99l121.92,39.16v737.35
			c0,11.6,9.4,21,21,21h71.81h883.38h71.81c8.39,0,15.98-5,19.29-12.71l42-97.71c1.13-2.62,1.71-5.44,1.71-8.3l-0.5-2659.31
			c0-6.9-3.39-13.36-9.07-17.28L2638.78,5.51C2635.28,3.09,2631.12,1.79,2626.85,1.79L2626.85,1.79z"/>
	</g>
</g>
<g id="Capa_7">
	
		<radialGradient id="SVGID_6_" cx="3517.7139" cy="511.0465" r="3582.9155" gradientTransform="matrix(0.9999 0.0109 -4.506509e-03 0.4119 7.3661 1207.0068)" gradientUnits="userSpaceOnUse">
		<stop  offset="0.013" style="stop-color:#000000;stop-opacity:0.3"/>
		<stop  offset="1" style="stop-color:#000000"/>
	</radialGradient>
	<rect x="-55.03" y="-63.29" class="st15" width="7171.18" height="3016.2"/>
</g>
<g id="Capa_2_1_">
	<g>
		<rect x="3017.06" y="2113.76" class="st16" width="1027" height="752.51"/>
	</g>
	<g>
		<rect x="3088.87" y="2113.76" class="st4" width="883.38" height="752.51"/>
	</g>
	<g>
		<polygon class="st4" points="2995.41,270.29 4065.71,270.29 4044.06,1302.29 3017.06,1302.29 		"/>
	</g>
	<rect x="2936.06" y="22.79" class="st4" width="1190" height="193.5"/>
	<rect x="2971.06" y="1926.26" class="st17" width="1119.5" height="143.5"/>
	<rect x="2955.08" y="38.83" class="st17" width="1151.46" height="161.44"/>
	<polygon class="st6" points="4065.19,270.29 2995.93,270.29 2935.06,216.29 4126.06,216.29 	"/>
	
		<linearGradient id="SVGID_7_" gradientUnits="userSpaceOnUse" x1="3530.5601" y1="897.4841" x2="3530.5601" y2="1542.2029" gradientTransform="matrix(1 0 0 1 0 454)">
		<stop  offset="2.024560e-07" style="stop-color:#FFFFFF"/>
		<stop  offset="1" style="stop-color:#949494"/>
	</linearGradient>
	<polygon class="st18" points="4043.56,1302.29 3017.56,1302.29 2970.56,1926.29 4090.56,1926.29 	"/>
	<path class="st19" d="M4126.06,216.29c-55.67,36.44-34.3,1815.88-35.5,1710l-46.5-624l21.13-1032L4126.06,216.29z"/>
	<path class="st19" d="M2935.56,216.29c55.67,36.44,34.3,1815.88,35.5,1710l46.5-624l-21.11-1032L2935.56,216.29z"/>
	<polygon class="st20" points="4043.56,2113.76 3017.56,2113.76 2970.56,2069.76 4090.56,2069.76 	"/>
	<g>
		<g>
			<path class="st10" d="M3820.52,2202.64c33.86,0,61.32,27.45,61.32,61.32v461.47c0,33.86-27.45,61.32-61.32,61.32h-579.93
				c-33.86,0-61.32-27.45-61.32-61.32v-461.47c0-33.86,27.45-61.32,61.32-61.32H3820.52 M3820.52,2192.64h-579.93
				c-39.32,0-71.32,31.99-71.32,71.32v461.47c0,39.32,31.99,71.32,71.32,71.32h579.93c39.32,0,71.32-31.99,71.32-71.32v-461.47
				C3891.84,2224.64,3859.85,2192.64,3820.52,2192.64L3820.52,2192.64z"/>
		</g>
	</g>
</g>
<g id="Capa_5">
	<g>
		<g>
			<path d="M4126.06,22.79v193.5c-52.44,34.32-36.52,1614.98-35.5,1710.08v143.39l-47,44v752.51h-1026.5l0.5-752.51l-46.5-44v-143.4
				c1.02-95.1,16.94-1675.74-35.5-1710.07l0.5-193.5L4126.06,22.79 M4090.56,1926.29c0.03,3.06,0.05,4.54,0.05,4.54
				s-0.02-1.52-0.05-4.46V1926.29 M2971.06,1926.29v0.07c-0.03,2.95-0.05,4.48-0.05,4.48S2971.02,1929.35,2971.06,1926.29
				 M4126.06,1.79h-1190c-11.58,0-20.97,9.37-21,20.95l-0.5,193.5c-0.01,5.53,2.15,10.78,5.92,14.67
				c1.81,4.34,7.12,21.88,12.53,85.91c4.02,47.53,7.5,113.15,10.33,195.05c4.82,139.32,7.9,327.71,9.14,559.93
				c2.21,413.59-2.2,832.95-2.43,854.07c0,0.06,0,0.12,0,0.18l-0.04,3.43c-0.01,0.58-0.02,1.37,0.04,2.31v137.97
				c0,5.77,2.37,11.29,6.57,15.25l39.93,37.78l-0.49,743.46c0,5.57,2.21,10.92,6.15,14.86c3.94,3.94,9.28,6.16,14.85,6.16h1026.5
				c11.6,0,21-9.4,21-21v-743.4l40.35-37.78c4.24-3.97,6.65-9.52,6.65-15.33V1931.8c0.05-0.94,0.04-1.73,0.04-2.31l-0.04-3.43
				c0-0.06,0-0.13,0-0.19c-0.23-21.46-4.64-440.74-2.43-854.05c1.24-232.23,4.32-420.62,9.14-559.94
				c2.84-81.9,6.31-147.52,10.33-195.05c5.42-64.03,10.72-81.57,12.53-85.91c3.76-3.88,5.92-9.1,5.92-14.62V22.79
				C4147.06,11.2,4137.66,1.79,4126.06,1.79L4126.06,1.79z"/>
		</g>
	</g>
</g>
<g id="Capa_3">
	<g>
		
			<linearGradient id="SVGID_8_" gradientUnits="userSpaceOnUse" x1="3530.5601" y1="2224.936" x2="3530.5601" y2="1687.4562" gradientTransform="matrix(1 0 0 1 0 454)">
			<stop  offset="6.126958e-07" style="stop-color:#000000"/>
			<stop  offset="0.9801" style="stop-color:#000000;stop-opacity:0.412"/>
			<stop  offset="1" style="stop-color:#000000;stop-opacity:0.4"/>
		</linearGradient>
		<rect x="3017.06" y="2110.92" class="st21" width="1027" height="755.35"/>
	</g>
	<g>
		
			<linearGradient id="SVGID_9_" gradientUnits="userSpaceOnUse" x1="2197.0698" y1="2224.936" x2="2197.0698" y2="1687.4562" gradientTransform="matrix(1 0 0 1 0 454)">
			<stop  offset="6.126958e-07" style="stop-color:#000000"/>
			<stop  offset="1" style="stop-color:#000000;stop-opacity:0.3"/>
		</linearGradient>
		<rect x="1683.57" y="2110.92" class="st22" width="1027" height="755.35"/>
	</g>
	<g>
		
			<linearGradient id="SVGID_10_" gradientUnits="userSpaceOnUse" x1="854.88" y1="2224.936" x2="854.88" y2="1687.4562" gradientTransform="matrix(1 0 0 1 0 454)">
			<stop  offset="6.126958e-07" style="stop-color:#000000"/>
			<stop  offset="1" style="stop-color:#000000;stop-opacity:0.3"/>
		</linearGradient>
		<rect x="341.38" y="2110.92" class="st23" width="1027" height="755.35"/>
	</g>
	<g>
		
			<linearGradient id="SVGID_11_" gradientUnits="userSpaceOnUse" x1="4864.0498" y1="2224.936" x2="4864.0498" y2="1687.4562" gradientTransform="matrix(1 0 0 1 0 454)">
			<stop  offset="6.126958e-07" style="stop-color:#000000"/>
			<stop  offset="1" style="stop-color:#000000;stop-opacity:0.3"/>
		</linearGradient>
		<rect x="4350.55" y="2110.92" class="st24" width="1027" height="755.35"/>
	</g>
	<g>
		
			<linearGradient id="SVGID_12_" gradientUnits="userSpaceOnUse" x1="6206.2402" y1="2224.936" x2="6206.2402" y2="1687.4562" gradientTransform="matrix(1 0 0 1 0 454)">
			<stop  offset="6.126958e-07" style="stop-color:#000000"/>
			<stop  offset="1" style="stop-color:#000000;stop-opacity:0.3"/>
		</linearGradient>
		<rect x="5692.74" y="2110.92" class="st25" width="1027" height="755.35"/>
	</g>
</g>
<g id="Capa_9">
</g>
</svg>
